<?xml version="1.0" encoding="utf-8"?><!DOCTYPE svg PUBLIC "-//W3C//DTD SVG 1.1//EN" "http://www.w3.org/Graphics/SVG/1.1/DTD/svg11.dtd"><svg width="259" height="187" viewBox="0 0 259 187" xmlns="http://www.w3.org/2000/svg" xmlns:xlink="http://www.w3.org/1999/xlink"><svg id="comment" data-name="Layer 1" width="64" height="64" viewBox="0 0 64 64" x="128" y="80.81" xmlns="http://www.w3.org/2000/svg"><defs><style>.acls-1{fill:#2f5572}</style></defs><title>comment</title><path class="acls-1" d="M.72.08A.67.67 0 0 0 0 .8v46.48a.72.72 0 0 0 .72.72H48l16 16V.72a.67.67 0 0 0-.72-.72H.8z"/></svg><svg version="1.2" width="78.5" height="32.81" viewBox="0 0 7850 3281" preserveAspectRatio="xMidYMid" fill-rule="evenodd" stroke-width="28.222" stroke-linejoin="round" id="eagle-view-escapes" xmlns="http://www.w3.org/2000/svg"><defs class="bClipPathGroup"><clipPath id="ba"><path d="M0 0h7850v3281H0z"/></clipPath></defs><g class="bSlideGroup"><g class="bSlide" clip-path="url(#ba)"><g class="bPage"><g class="bcom.sun.star.drawing.PolyPolygonShape"><path class="bBoundingBox" fill="none" d="M0 1506h1082v1424H0z"/></g><g class="bcom.sun.star.drawing.PolyPolygonShape"><path class="bBoundingBox" fill="none" d="M0 1506h1081v1423H0z"/></g><g class="bcom.sun.star.drawing.PolyPolygonShape"><path class="bBoundingBox" fill="none" d="M0 1506h1079v1422H0z"/><path d="M1063 1506v263H313v304h688v242H313v349h765v263H0V1506h1063z"/></g><g class="bcom.sun.star.drawing.PolyPolygonShape"><path class="bBoundingBox" fill="none" d="M1206 1864h959v1092h-959z"/></g><g class="bcom.sun.star.drawing.PolyPolygonShape"><path class="bBoundingBox" fill="none" d="M1205 1864h958v1091h-958z"/></g><g class="bcom.sun.star.drawing.ClosedBezierShape"><path class="bBoundingBox" fill="none" d="M1206 1864h956v1089h-956z"/><path d="M1494 2670c1 2 1 3 1 3 13 23 28 38 48 52 5 5 8 6 13 10 19 11 35 17 55 21 28 9 52 11 81 11h1c21-1 40-2 62-7s39-11 59-23c3-1 3-1 4-2 19-10 31-23 44-39 1-2 1-4 2-6 10-17 15-34 15-53v-5c-2-15-5-29-15-44-9-16-21-28-39-38-8-7-18-9-31-13-81-27-153-49-238-65-40-10-81-21-120-34-30-8-55-20-82-36-9-4-15-8-23-13-31-21-52-45-74-77-18-35-27-68-27-106 0-4 0-5 1-8-1-5-1-10-1-16 0-55 12-102 39-150 26-44 57-75 103-100 47-27 89-43 142-52 56-11 105-16 161-16h6c57 0 106 5 162 16 46 9 88 25 130 50 3 2 6 3 9 7 44 27 74 58 100 102 1 4 4 5 5 8 27 47 40 95 45 149h-270v-3c0-24-7-42-18-63s-25-35-45-46c-41-20-79-27-124-27h-7c-18 0-33 0-52 1-18 1-33 6-50 12-5 4-8 5-11 7-11 6-20 13-29 23-2 3-3 5-6 8-6 12-9 25-9 40v6c0 14 3 27 9 39 5 8 11 14 18 20 10 8 18 13 28 19 15 10 28 14 45 20 34 11 65 19 102 27l120 27c44 8 79 20 121 33 25 9 45 18 67 32 15 8 25 15 37 23 31 23 54 48 73 81 0 1 1 1 1 1 19 37 29 72 29 112v24c0 58-15 107-43 157-26 47-60 80-105 110-2 1-6 2-9 5-47 26-90 41-142 51-60 12-112 17-173 17h-2c-62 0-113-5-173-17-51-11-92-26-138-54-4-2-7-4-12-7-47-30-82-63-110-112-34-53-48-107-48-170h268v3c0 27 6 52 20 75z"/></g><g class="bcom.sun.star.drawing.PolyPolygonShape"><path class="bBoundingBox" fill="none" d="M2286 1872h1019v1084H2286z"/></g><g class="bcom.sun.star.drawing.PolyPolygonShape"><path class="bBoundingBox" fill="none" d="M2286 1872h1019v1082H2286z"/></g><g class="bcom.sun.star.drawing.ClosedBezierShape"><path class="bBoundingBox" fill="none" d="M2286 1872h1017v1081H2286z"/><path d="M2813 2085h-6c-39 0-68 10-102 26-1 2-4 4-6 5-33 22-56 48-75 80 0 1-1 1-1 4-20 34-32 65-39 104-8 40-13 73-13 114 0 38 5 72 13 110 7 40 19 71 37 105 2 0 2 1 2 1 18 31 41 55 72 76 1 2 3 2 4 3 34 19 62 26 101 26h20c38 0 70-7 103-26 15-9 27-18 37-28 15-16 25-30 35-47 20-35 32-68 34-105h273c-5 70-24 130-59 192-29 48-59 83-99 119-20 16-37 26-57 39-84 47-164 69-258 69h-27c-76 0-138-13-206-39-23-9-42-19-65-31-39-22-70-47-101-80-30-29-51-59-74-95-12-24-22-44-32-71-27-68-38-131-38-205v-6-5c0-79 11-144 35-216 10-32 21-54 39-83 19-35 39-61 65-91 35-38 69-64 111-89 19-11 37-19 55-26 73-30 138-43 216-43h10c61 0 112 8 172 24 40 11 75 25 112 46 13 9 26 16 40 28 46 31 78 66 106 116 34 58 49 111 50 176h-277c-1-30-10-56-25-83-17-29-38-52-68-69-30-18-60-25-95-25h-19z"/></g><g class="bcom.sun.star.drawing.PolyPolygonShape"><path class="bBoundingBox" fill="none" d="M3419 1869h1006v1087H3419z"/></g><g class="bcom.sun.star.drawing.PolyPolygonShape"><path class="bBoundingBox" fill="none" d="M3418 1870h1005v1084H3418z"/></g><g class="bcom.sun.star.drawing.ClosedBezierShape"><path class="bBoundingBox" fill="none" d="M3419 1870h1003v1083H3419z"/><path d="M3449 2214c0-57 14-106 44-156 1-3 2-7 5-9 29-46 64-79 110-106 50-29 96-44 153-55 58-13 108-18 170-18 55 0 102 4 156 11s98 20 147 43c8 4 15 7 25 12 33 20 61 44 83 75 4 7 7 9 10 15 24 39 33 79 33 124v552c0 45 4 84 7 129 4 35 12 65 29 96h-288c-5-17-8-31-11-49-4-18-6-32-7-51-25 26-50 45-82 64-25 14-48 25-77 32-64 20-120 29-187 29h-6c-46 0-85-5-131-17-28-8-50-18-75-32-13-7-24-16-37-25-26-20-45-42-62-72-4-8-8-15-13-23-18-42-26-83-26-130v-6-13c0-47 10-90 31-133 2-3 4-4 5-8 20-34 43-59 75-81 8-7 15-12 24-17 28-16 54-27 85-35 47-12 84-21 128-27 42-8 84-13 126-16 40-4 73-9 110-18 20-5 38-11 57-20 6-5 12-10 20-15 5-4 10-10 12-16 8-13 11-24 11-38 0-5-1-10-1-15v-6c0-25-5-44-16-65-9-18-21-29-38-38-1 0-1 0-1-2h-1c-18-10-35-15-55-19-24-4-44-4-68-4h-2c-4-2-9-2-12-2-40 0-73 10-108 30-4 1-8 5-10 6-17 13-25 25-35 43-14 25-22 49-22 79h-285v-3zm651 209c-7 6-10 9-19 14-8 5-15 7-25 11-19 6-35 11-56 15-22 4-44 10-65 10-23 0-47 6-68 9-23 5-41 10-63 16-13 5-26 9-38 18-7 2-12 6-17 10-15 11-26 22-36 40 0 0-1 1-1 2-9 19-14 38-14 60v10c0 23 5 40 14 60 1 0 1 2 1 4 10 15 21 26 36 38 2 0 2 1 4 1 16 9 33 15 51 19 24 5 44 6 65 6h17c42 0 76-8 114-29 30-16 50-37 67-65 0-3 0-3 1-3 15-25 23-47 28-77 2-23 4-41 6-64v-105h-2z"/></g><g class="bcom.sun.star.drawing.PolyPolygonShape"><path class="bBoundingBox" fill="none" d="M4599 1869h1055v1419H4599z"/></g><g class="bcom.sun.star.drawing.PolyPolygonShape"><path class="bBoundingBox" fill="none" d="M4598 1869h1051v1418H4598z"/></g><g class="bcom.sun.star.drawing.ClosedBezierShape"><path class="bBoundingBox" fill="none" d="M4598 1869h1049v1417H4598z"/><path d="M4868 1898v132h4c27-50 64-86 114-113 6-4 11-7 17-10 56-27 108-38 170-38h17c71 0 132 14 197 45 8 5 13 6 19 11 51 30 90 64 126 112 14 17 24 32 34 51 24 41 40 79 53 125 18 71 27 134 27 206v7c0 68-9 128-27 196-13 43-28 76-49 115-11 19-23 36-36 54-34 44-70 76-120 105l-24 12c-62 31-119 44-188 44h-14c-62 0-116-12-172-40-8-4-14-7-23-12-45-27-79-58-109-102h-1v487h-284V1898h269zm367 814c32-20 56-41 75-75 3-2 5-6 6-9 17-31 29-60 35-96 9-41 12-78 12-120v-3c0-42-3-78-12-118-9-37-19-67-36-98-4-4-5-6-7-10-20-33-43-56-76-75-34-16-62-25-99-25-6 0-11 2-17 2h-8c-40 0-74 9-109 28-32 20-56 42-76 75-1 4-2 5-5 7-16 33-27 62-35 98-9 41-11 76-11 118v7c0 43 5 79 12 119 8 32 19 60 34 88 4 5 5 8 9 12 21 30 45 53 76 71 39 22 76 32 120 32 42 0 75-9 112-28z"/></g><g class="bcom.sun.star.drawing.PolyPolygonShape"><path class="bBoundingBox" fill="none" d="M5758 1868h1036v1088H5758z"/></g><g class="bcom.sun.star.drawing.PolyPolygonShape"><path class="bBoundingBox" fill="none" d="M5758 1868h1036v1087H5758z"/></g><g class="bcom.sun.star.drawing.ClosedBezierShape"><path class="bBoundingBox" fill="none" d="M5758 1868h1033v1086H5758z"/><path d="M6113 2680c12 10 23 16 35 24 45 27 90 40 144 40 55 0 99-13 145-40 4-1 5-3 8-4 27-16 47-36 62-65 7-9 10-18 13-26h249c-13 43-26 79-48 116-36 63-77 108-135 148-5 3-8 6-13 8-87 50-169 72-269 72h-28c-76 0-140-12-211-38-22-9-42-19-64-31-39-24-69-46-102-80-27-29-47-56-67-90-14-26-26-53-36-80-27-73-38-137-38-213v-10-6c0-74 11-138 38-208 11-29 22-51 36-78 45-78 102-135 181-181 20-10 37-20 57-27 68-30 132-43 206-43h19c80 0 147 16 217 51 8 4 14 7 22 12 57 32 100 70 139 123 15 20 26 38 38 59 27 47 44 89 58 139 15 60 21 114 21 177 0 18 0 35-2 53h-743v13c0 51 11 96 37 141 10 18 19 30 31 44zm319-538c-12-13-22-23-38-30-32-19-63-26-99-26h-24c-38 0-69 7-103 23-6 2-11 4-16 8-21 12-39 26-56 48-8 8-13 16-19 26-7 15-14 27-19 45-7 24-10 44-12 67h459c-6-42-19-78-39-116-11-16-21-31-34-45z"/></g><g class="bcom.sun.star.drawing.PolyPolygonShape"><path class="bBoundingBox" fill="none" d="M6896 1864h964v1092h-964z"/></g><g class="bcom.sun.star.drawing.PolyPolygonShape"><path class="bBoundingBox" fill="none" d="M6896 1864h961v1091h-961z"/></g><g class="bcom.sun.star.drawing.ClosedBezierShape"><path class="bBoundingBox" fill="none" d="M6897 1864h959v1089h-959z"/><path d="M7187 2670c2 2 2 3 2 3 12 23 27 38 46 52 5 5 10 6 15 10 19 11 34 17 54 21 28 9 52 11 80 11h2c22-1 40-2 63-7 21-5 39-11 59-23l1-1c17-9 31-21 42-39 2-1 4-3 5-5 9-17 14-35 14-54v-3c-1-17-6-32-14-47-10-16-22-28-38-38-12-7-22-9-34-13-81-27-150-49-234-65-41-10-80-21-122-34-30-8-55-20-81-36-7-4-15-8-21-13-34-21-55-45-74-77-20-35-29-68-29-106v-8-16c0-55 13-102 40-150 25-44 58-75 102-100 46-27 91-43 144-52 55-11 103-16 161-16h5c58 0 105 5 161 16 48 9 88 25 131 50 3 2 7 3 10 7 43 26 75 57 102 100 1 1 3 3 4 6 29 47 42 95 44 151h-268v-2c0-24-6-43-16-64-12-19-25-33-47-45-40-19-77-28-124-28h-7c-19 0-33 0-51 3-19 1-35 5-50 12-5 2-8 4-12 5-11 7-20 14-27 24-4 3-5 6-6 9-7 12-10 24-10 38v6c0 15 3 27 10 40 3 7 10 14 16 20 10 7 19 14 29 20 15 7 27 14 45 19 35 11 66 20 102 26l115 29c44 8 79 20 122 33 25 9 45 18 66 32 15 8 25 15 38 23 31 23 53 48 72 81l1 1c19 37 29 72 29 112v23c0 56-15 106-42 155-27 46-62 81-107 111-5 2-7 4-12 7-45 26-88 41-138 51-60 12-111 17-172 17h-3c-61 0-114-5-173-17-51-11-96-26-141-54-5-2-8-4-11-7-47-28-82-63-110-109v-3c-34-53-48-107-48-170h269c0 30 6 53 21 78z"/></g><g class="bcom.sun.star.drawing.PolyPolygonShape"><path class="bBoundingBox" fill="none" d="M2343 0h167v992h-167z"/></g><g class="bcom.sun.star.drawing.PolyPolygonShape"><path class="bBoundingBox" fill="none" d="M2843 0h164v991h-164z"/></g><g class="bcom.sun.star.drawing.PolyPolygonShape"><path class="bBoundingBox" fill="none" d="M2944 0h162v989h-162z"/><path d="M2944 0h161v988h-161V0z"/></g><g class="bcom.sun.star.drawing.PolyPolygonShape"><path class="bBoundingBox" fill="none" d="M2674 276h693v756h-693z"/></g><g class="bcom.sun.star.drawing.PolyPolygonShape"><path class="bBoundingBox" fill="none" d="M3063 250h691v754h-691z"/></g><g class="bcom.sun.star.drawing.ClosedBezierShape"><path class="bBoundingBox" fill="none" d="M3263 250h689v753h-689z"/><path d="M3421 667v1c0 29 3 53 11 80 5 16 11 29 19 43 6 8 11 17 17 25 14 17 29 29 48 39 4 3 7 5 12 8 27 10 52 17 81 17h13c34 0 64-8 94-25 5-3 6-4 11-7 20-15 34-32 47-52 6-13 11-24 16-37h150c-7 33-17 61-35 88-21 38-46 66-82 93-9 6-18 11-27 17-24 13-44 21-69 29-37 11-72 16-111 16h-6c-53 0-97-7-143-29-14-3-25-10-38-16-30-17-52-35-73-60-19-20-33-39-48-62-10-19-19-36-25-56-14-46-20-88-20-137v-18c0-51 8-94 25-142 8-23 18-44 30-64 11-23 24-39 39-57 25-28 50-48 81-67 53-30 104-44 163-44h14c54 0 100 11 146 36 5 2 8 3 13 7 41 23 71 50 99 86 10 14 17 26 26 40 17 31 29 59 37 93 10 36 15 68 15 106 0 18 0 31-3 49h-527zm369-104c-1-26-6-48-16-71-5-12-8-20-14-30-6-12-14-20-23-32-13-14-26-25-43-35-4-2-8-4-13-6-21-10-45-15-70-15h-1-4c-25 0-49 2-71 14-7 3-13 5-19 10-16 7-28 16-40 31-10 11-19 21-26 36-5 8-9 15-13 23-10 25-16 49-16 75h369z"/></g><g class="bcom.sun.star.drawing.PolyPolygonShape"><path class="bBoundingBox" fill="none" d="M1470 214h723v759h-723z"/></g><g class="bcom.sun.star.drawing.PolyPolygonShape"><path class="bBoundingBox" fill="none" d="M1330 240h719v757h-719z"/></g><g class="bcom.sun.star.drawing.ClosedBezierShape"><path class="bBoundingBox" fill="none" d="M1229 240h719v756h-719z"/><path d="M1870 817v6c0 13 2 24 7 37 4 2 6 6 10 7 6 3 10 5 16 5h44v109l-21 4-29 6-26 2h-25c-1 2-3 2-5 2-28 0-51-7-75-20-13-8-22-19-30-32-7-12-9-23-10-36-18 16-34 29-54 40-21 13-40 20-63 26-45 14-86 20-132 20h-3c-31 0-59-2-90-12-21-6-36-13-55-24-8-4-16-9-24-15-21-16-37-32-50-56-2-4-2-5-5-8-14-30-20-56-20-89v-6-10c0-36 8-67 25-100 16-29 36-49 63-65 1 0 1-1 1-1 30-17 55-27 87-33 34-6 67-12 99-16 30-6 54-9 84-13 24-1 44-5 68-11 14-1 22-6 35-12 4-3 9-4 11-8 4-2 6-6 8-11 6-10 10-21 10-35v-5-5c0-14-4-26-12-39-1-4-1-5-2-6-9-12-18-22-30-28-4-1-5-1-6-2-17-8-30-13-48-14-19-3-32-4-50-4h-9c-37 0-67 8-100 26 0 0-2 0-2 3-14 9-25 20-33 36-9 15-14 32-15 48h-158c3-40 12-77 32-113 2 0 2-1 2-1 20-31 44-55 75-74 1-1 3-2 4-2 31-19 61-30 98-37 38-7 73-11 113-11h3c38 0 69 4 105 11 33 7 60 18 90 34 29 18 49 36 67 65 0 1 1 1 1 3 17 28 24 56 24 87v377zm-159-199c-2 1-3 1-4 3-28 16-54 23-84 25-38 3-71 8-106 15-18 2-32 6-47 12-11 3-21 6-30 13-5 2-7 3-12 7-11 8-18 18-25 28 0 2-3 5-4 6-8 17-11 31-11 50v5c0 12 3 24 10 34 1 2 2 6 6 9 8 10 18 17 29 23 2 2 4 3 7 5 15 8 30 10 47 14 17 3 30 5 47 5 19 0 36-4 55-9 19-2 34-8 52-18 3-3 5-3 7-7 19-10 31-22 44-40 2-4 4-5 5-6 10-18 14-35 14-55V618z"/></g><g class="bcom.sun.star.drawing.PolyPolygonShape"><path class="bBoundingBox" fill="none" d="M4239 24h863v993h-863z"/></g><g class="bcom.sun.star.drawing.PolyPolygonShape"><path class="bBoundingBox" fill="none" d="M4239 24h862v992h-862z"/></g><g class="bcom.sun.star.drawing.PolyPolygonShape"><path class="bBoundingBox" fill="none" d="M4239 24h861v989h-861z"/><path d="M4239 24h180l248 782h5l250-782h177l-338 988h-193L4239 24z"/></g><g class="bcom.sun.star.drawing.PolyPolygonShape"><path class="bBoundingBox" fill="none" d="M5186 24h169v993h-169z"/></g><g class="bcom.sun.star.drawing.PolyPolygonShape"><path class="bBoundingBox" fill="none" d="M5188 24h164v992h-164z"/></g><g class="bcom.sun.star.drawing.PolyPolygonShape"><path class="bBoundingBox" fill="none" d="M5189 24h162v989h-162z"/><path d="M5189 24h161v149h-161V24zm0 273h161v715h-161V297z"/></g><g class="bcom.sun.star.drawing.PolyPolygonShape"><path class="bBoundingBox" fill="none" d="M5480 276h693v757h-693z"/></g><g class="bcom.sun.star.drawing.PolyPolygonShape"><path class="bBoundingBox" fill="none" d="M5483 276h689v756h-689z"/></g><g class="bcom.sun.star.drawing.ClosedBezierShape"><path class="bBoundingBox" fill="none" d="M5483 275h688v755h-688z"/><path d="M5641 693v1c0 29 3 53 11 80 5 16 11 29 19 43 5 8 11 17 17 25 14 17 29 29 48 39 2 3 7 5 12 8 27 10 52 17 81 17h13c34 0 64-8 95-25 2-2 5-3 8-4 21-16 35-31 47-54 7-13 12-24 17-36h147c-6 32-15 60-32 87-21 40-46 67-83 93-10 6-17 11-26 17-24 13-45 22-70 30-39 10-71 15-110 15h-9c-50 0-94-7-143-26-12-6-22-11-36-19-29-17-51-35-73-60-16-16-28-32-40-52-12-23-21-43-27-67-18-50-24-93-24-146v-9c0-51 8-94 25-142 8-23 16-44 29-64 12-23 25-38 40-57 25-28 49-48 81-67 53-30 104-44 163-44h14c52 0 100 11 146 36 5 2 8 3 13 7 40 23 71 50 99 86 10 14 17 25 25 39 17 31 30 60 38 95 10 36 13 67 13 105 0 18 0 34-3 50h-527l2-1zm369-104c-1-26-6-48-16-71-5-12-8-20-14-30-6-12-14-20-23-32-13-14-26-25-43-35-4-2-8-4-13-6-21-10-44-15-69-15h-3c-28 0-49 5-74 14-5 3-10 5-15 7-15 10-28 19-40 34-12 11-19 21-27 36-5 8-10 15-12 23-10 25-17 49-17 75h369-3z"/></g><g class="bcom.sun.star.drawing.PolyPolygonShape"><path class="bBoundingBox" fill="none" d="M6218 295h1045v719H6218z"/></g><g class="bcom.sun.star.drawing.PolyPolygonShape"><path class="bBoundingBox" fill="none" d="M6219 294h1042v719H6219z"/></g><g class="bcom.sun.star.drawing.PolyPolygonShape"><path class="bBoundingBox" fill="none" d="M6219 295h1042v717H6219z"/><path d="M6219 295h166l139 534 135-534h163l128 534 149-534h160l-220 716h-164l-132-531-131 531h-167l-226-716z"/></g><g class="bcom.sun.star.drawing.PolyPolygonShape"><path class="bBoundingBox" fill="none" d="M0 0h788v1037H0z"/></g><g class="bcom.sun.star.drawing.PolyPolygonShape"><path class="bBoundingBox" fill="none" d="M500 0h763v1003H500z"/></g><g class="bcom.sun.star.drawing.PolyPolygonShape"><path class="bBoundingBox" fill="none" d="M399 0h762v1002H399z"/><path d="M1148 0v185H620v214h485v170H620v247h540v185H400V0h748z"/></g><g class="bcom.sun.star.drawing.PolyPolygonShape"><path class="bBoundingBox" fill="none" d="M1750-375h1128v1913H1750z"/></g><g class="bcom.sun.star.drawing.TextShape"><path class="bBoundingBox" fill="none" d="M0-10h3v938H0z"/></g><g class="bcom.sun.star.drawing.TextShape"><path class="bBoundingBox" fill="none" d="M0-882h3V56H0z"/></g><g class="bcom.sun.star.drawing.TextShape"><path class="bBoundingBox" fill="none" d="M2063 946h3v938h-3z"/></g><g class="bcom.sun.star.drawing.TextShape"><path class="bBoundingBox" fill="none" d="M0-1h24v38H0z"/><text class="bTextShape"><tspan class="bTextParagraph" font-family="Liberation Sans, sans-serif" font-size="35" font-weight="700"><tspan class="bTextPosition" x="0" y="29"><tspan>g</tspan></tspan></tspan></text></g><g class="bcom.sun.star.drawing.ClosedBezierShape"><path class="bBoundingBox" fill="none" d="M2083 300h719v947h-719z"/><path d="M2723 523v-8c0-16 2-30 7-46 4-3 6-8 10-9 6-4 10-6 16-6h44V318l-21-5-29-8-26-2h-25c-1-3-3-3-5-3-28 0-51 9-75 25-13 10-22 24-30 40-7 15-9 29-10 45-18-20-34-36-54-50-21-16-40-25-63-32-45-18-86-25-132-25h-3c-31 0-59 2-90 15-21 7-36 16-55 30-8 5-16 11-24 18-21 20-37 40-50 70-2 5-2 7-5 10-14 38-20 71-20 112v20c0 45 8 84 25 125 16 36 36 61 63 81 1 0 1 2 1 2 30 21 55 33 87 41 34 7 67 15 99 20 30 7 54 11 84 16 24 1 44 7 68 14 14 1 22 8 35 15 4 4 9 5 11 10 4 3 6 8 8 14 6 12 10 26 10 44v12c0 18-4 33-12 49-1 5-1 6-2 7-9 15-18 28-30 36-4 1-5 1-6 2-17 10-30 16-48 18-19 3-32 5-50 5h-9c-37 0-67-10-100-33 0 0-2 0-2-4-14-11-25-25-33-45-9-19-14-40-15-60h-158c3 50 12 96 32 142 2 0 2 1 2 1 20 39 44 69 75 92 1 2 3 3 4 3 31 24 61 37 98 46 38 9 73 14 113 14h3c38 0 69-5 105-14 33-9 60-22 90-42 29-23 49-45 67-82 0-1 1-1 1-3 17-35 24-71 24-109V523zm-159 249c-2-1-3-1-4-4-28-20-54-29-84-31-38-4-71-10-106-19-18-2-32-7-47-15-11-4-21-7-30-16-5-3-7-4-12-9-11-10-18-23-25-35 0-3-3-6-4-8-8-21-11-38-11-62v-6c0-15 3-30 10-43 1-2 2-7 6-11 8-13 18-21 29-29 2-3 4-4 7-6 15-10 30-13 47-18 17-4 30-6 47-6 19 0 36 5 55 11 19 3 34 10 52 23 3 4 5 4 7 9 19 12 31 27 44 50 2 5 4 6 5 7 10 23 14 44 14 69v149z"/></g></g></g></g></svg><svg id="facebook" data-name="Layer 1" width="21.23" height="42.01" viewBox="0 0 21.23 42.01" x="42.01" y="144.81" xmlns="http://www.w3.org/2000/svg"><defs><style>.ccls-1{fill:#fff}</style></defs><title>facebook</title><path class="ccls-1" d="M21.23.31V7H17.4a3.55 3.55 0 0 0-2.85.91 4.26 4.26 0 0 0-.74 2.72v4.77H21l-1 7.47h-6.19V42H6.27V22.85H0v-7.47h6.27V9.85q0-4.69 2.55-7.28A9 9 0 0 1 15.63 0a39.57 39.57 0 0 1 5.6.31z"/></svg><svg id="fire" data-name="Layer 1" width="56" height="64" viewBox="0 0 56 64" x="138.5" xmlns="http://www.w3.org/2000/svg"><defs><style>.dcls-1{fill:#d4953d}</style></defs><title>Untitled-2</title><path class="dcls-1" d="M16 0C24 16 0 24 0 40s16 24 16 24C8.16 48.16 32 40 32 24S16 0 16 0zm24 24c8 16-16 24-16 40h24c3.2 0 8-4 8-16 0-16-16-24-16-24z"/></svg><svg id="globe" data-name="Layer 1" width="64" height="64" viewBox="0 0 64 64" y="80.81" xmlns="http://www.w3.org/2000/svg"><defs><style>.ecls-1{fill:#d4953f}</style></defs><title>globe</title><path class="ecls-1" d="M32 0a32 32 0 1 0 32 32A32 32 0 0 0 32 0zm0 8a23.75 23.75 0 0 1 7.52 1.52c-1.68 1.6-3.6 3-3.28 4.48s5.52 1 5.52 4c0 2.16-3.36 2.8-1 5.28 2.8 2.8-5.12 7.84-5.28 11.52-.24 6.64 6.72 7.76 12.24 7.76 3.36 0 4.24 1.6 4 3.52a24.07 24.07 0 0 1-19.76 10 22.94 22.94 0 0 1-8.48-1.76c1.76-3.52-2.24-10.48-6-12.72-1.84-1.84-5.76-1.12-8-2a23.49 23.49 0 0 1-1.52-6.72 1.42 1.42 0 0 1 1.28-.72c1.52 0 3.6 3 4.72 2.72 1.4-.32-5.96-10.48-2.52-12.48 1.6-1 4.8 3.12 3.76-1.28-1-4.08 2.88-2.24 5.28-3.28 2.08-.88 3.6-3.28 1-4.72a8.55 8.55 0 0 1-1.76-1.52A23.75 23.75 0 0 1 32 8.08V8zm18.48 8.72A26.46 26.46 0 0 1 54 22.48v.24a11.78 11.78 0 0 1-1.76 1.76C50 26.72 49.68 22.8 48.72 22c-1-1-4.8.16-5.28-1-.56-1.48 4-3.4 7.04-4.28z"/></svg><svg id="instagram" data-name="Layer 1" width="42.01" height="42.01" viewBox="0 0 42.01 42.01" y="144.81" xmlns="http://www.w3.org/2000/svg"><defs><style>.fcls-1{fill:#fff}</style></defs><title>instagram</title><path class="fcls-1" d="M37.25 35.49V17.77h-3.69a11.77 11.77 0 0 1 .57 3.58 12.12 12.12 0 0 1-1.75 6.36 12.76 12.76 0 0 1-4.76 4.59 13.13 13.13 0 0 1-6.56 1.7 12.78 12.78 0 0 1-9.19-3.71 12 12 0 0 1-3.83-9 11.77 11.77 0 0 1 .49-3.56H4.68v17.76a1.63 1.63 0 0 0 1.6 1.67h29.3a1.63 1.63 0 0 0 1.17-.47 1.59 1.59 0 0 0 .5-1.2zm-7.77-14.57A7.75 7.75 0 0 0 27 15.14a8.28 8.28 0 0 0-6-2.4 8.25 8.25 0 0 0-5.91 2.39 7.75 7.75 0 0 0-2.47 5.78 7.75 7.75 0 0 0 2.47 5.79A8.25 8.25 0 0 0 21 29.1a8.28 8.28 0 0 0 6-2.4 7.75 7.75 0 0 0 2.48-5.78zm7.76-9.84V6.56a1.84 1.84 0 0 0-.54-1.31 1.8 1.8 0 0 0-1.31-.56h-4.78a1.8 1.8 0 0 0-1.31.56 1.84 1.84 0 0 0-.54 1.31v4.52A1.87 1.87 0 0 0 30.6 13h4.8a1.87 1.87 0 0 0 1.85-1.89zM42 5.39v31.23A5.41 5.41 0 0 1 36.62 42H5.39a5.19 5.19 0 0 1-3.8-1.59A5.19 5.19 0 0 1 0 36.62V5.39a5.19 5.19 0 0 1 1.59-3.8A5.19 5.19 0 0 1 5.39 0h31.23a5.19 5.19 0 0 1 3.8 1.59A5.19 5.19 0 0 1 42 5.39z"/></svg><svg id="mail" data-name="Layer 1" width="64" height="48" viewBox="0 0 64 48" y="32.81" xmlns="http://www.w3.org/2000/svg"><defs><style>.gcls-1{fill:#2f5572}</style></defs><title>mail</title><path class="gcls-1" d="M0 0v8l32 16L64 8V0H0zm0 16v32h64V16L32 32z"/></svg><svg id="rain" data-name="Layer 1" width="64" height="64" viewBox="0 0 64 64" x="194.5" xmlns="http://www.w3.org/2000/svg"><defs><style>.hcls-1{fill:#d4953f}</style></defs><title>rain</title><path class="hcls-1" d="M36 0a20.42 20.42 0 0 0-20 16A16 16 0 0 0 0 32a15.4 15.4 0 0 0 4.27 10.72A11.88 11.88 0 0 1 12 40a10.51 10.51 0 0 1 4.47 1A12 12 0 0 1 28 32a12.06 12.06 0 0 1 11.51 9A11.84 11.84 0 0 1 44 40a11.94 11.94 0 0 1 11 7.52A12.07 12.07 0 0 0 64 36c0-5.2-3.36-10.32-8-12v-4A20 20 0 0 0 36 0zm-9.27 40A4 4 0 0 0 24 44v16a4 4 0 1 0 8 0V44a4 4 0 0 0-4.71-4h-.56zm-16 8A4 4 0 0 0 8 52v8a4 4 0 1 0 8 0v-8a4 4 0 0 0-4.71-4h-.54zm32 0A4 4 0 0 0 40 52v8a4 4 0 1 0 8 0v-8a4 4 0 0 0-4.71-4h-.58z" transform="translate(-.04)"/></svg><svg id="star" data-name="Layer 1" width="64" height="64" viewBox="0 0 64 64" x="64" y="80.81" xmlns="http://www.w3.org/2000/svg"><defs><style>.icls-1{fill:#d4953f}</style></defs><title>star</title><path class="icls-1" d="M32 0l-8 24H0l20 16-8 24 20-16 20 16-8-24 20-16H40z"/></svg><svg id="twitter" data-name="Layer 1" width="51.78" height="42.06" viewBox="0 0 51.78 42.06" x="194.5" y="64" xmlns="http://www.w3.org/2000/svg"><defs><style>.jcls-1{fill:#fff}</style></defs><title>twitter</title><path class="jcls-1" d="M51.78 5a22.23 22.23 0 0 1-5.32 5.52v1.38a30.15 30.15 0 0 1-1.25 8.53 30.81 30.81 0 0 1-3.76 8.13 32.1 32.1 0 0 1-6.06 6.92 27 27 0 0 1-8.48 4.8 31 31 0 0 1-10.62 1.8A29.47 29.47 0 0 1 0 37.29a22.71 22.71 0 0 0 2.56.13 20.78 20.78 0 0 0 13.17-4.53 10.63 10.63 0 0 1-9.92-7.36 13.45 13.45 0 0 0 2 .16 11 11 0 0 0 2.79-.36 10.44 10.44 0 0 1-6.09-3.67 10.25 10.25 0 0 1-2.41-6.75v-.13a10.52 10.52 0 0 0 4.8 1.34 10.6 10.6 0 0 1-3.45-3.78 10.34 10.34 0 0 1-1.28-5.07 10.4 10.4 0 0 1 1.45-5.33 30.08 30.08 0 0 0 9.71 7.83A29.57 29.57 0 0 0 25.53 13a11.79 11.79 0 0 1-.26-2.43 10.23 10.23 0 0 1 3-7.48 10.64 10.64 0 0 1 15 0l.21.22A20.81 20.81 0 0 0 50.33.8a10.3 10.3 0 0 1-4.67 5.85A21.14 21.14 0 0 0 51.78 5z"/></svg><svg id="wifi" data-name="Layer 1" width="60" height="64" viewBox="0 0 60 64" x="78.5" xmlns="http://www.w3.org/2000/svg"><defs><style>.kcls-1{fill:#d4953e}</style></defs><title>wifi</title><path class="kcls-1" d="M29.88 0A55.39 55.39 0 0 0 0 8.72l4.22 6.48a47.32 47.32 0 0 1 25.66-7.28 47.31 47.31 0 0 1 25.9 7.28L60 8.72A55.53 55.53 0 0 0 29.88 0zm0 24a31.08 31.08 0 0 0-17 5l4.22 6.72A23.09 23.09 0 0 1 29.8 32a24.17 24.17 0 0 1 13 3.76L47 29a32.37 32.37 0 0 0-17.2-5h.07zm0 24a8 8 0 1 0 8 8 8 8 0 0 0-8-8z"/></svg><svg id="youtube" data-name="Layer 1" width="34.75" height="42" viewBox="0 0 34.75 42" x="63.239999999999995" y="144.81" xmlns="http://www.w3.org/2000/svg"><defs><style>.lcls-1{fill:#fff}</style></defs><title>youtube</title><path class="lcls-1" d="M22.13 29.15v5q0 1.57-.91 1.57a1.5 1.5 0 0 1-1.06-.52v-7.11a1.5 1.5 0 0 1 1.06-.54q.91 0 .91 1.6zm7.92 0v1.08h-2.1v-1.06q0-1.59 1.06-1.59t1 1.59zM7.42 24h2.5v-2.14h-7.3v2.2h2.46V37.4h2.34V24zm6.75 13.4h2.09V25.82h-2.09v8.86a1.86 1.86 0 0 1-1.31 1 .48.48 0 0 1-.49-.47 6.52 6.52 0 0 1 0-.82v-8.57h-2.14V35a5.79 5.79 0 0 0 .19 1.71 1.26 1.26 0 0 0 1.36.87 3.43 3.43 0 0 0 2.39-1.43v1.25zm10.05-3.47v-4.6A8.33 8.33 0 0 0 24 27a1.63 1.63 0 0 0-1.67-1.31A2.82 2.82 0 0 0 20.16 27v-5.1h-2.08v15.5h2.09v-1.13a2.91 2.91 0 0 0 2.18 1.31A1.62 1.62 0 0 0 24 36.27a8.61 8.61 0 0 0 .22-2.35zm7.92-.24v-.3H30a11.6 11.6 0 0 1 0 1.43.9.9 0 0 1-.94.85q-1.08 0-1.08-1.61V32h4.19v-2.41a4.65 4.65 0 0 0-.66-2.72 3.2 3.2 0 0 0-5 0 4.52 4.52 0 0 0-.66 2.72v4.05a4.4 4.4 0 0 0 .66 2.72 3 3 0 0 0 2.49 1.2 2.9 2.9 0 0 0 3-2.51 10.31 10.31 0 0 0 .09-1.36zM17.89 12.3V7.38q0-1.61-1-1.61t-1 1.61v4.92q0 1.64 1 1.64t1-1.64zm16.85 17.6a40.6 40.6 0 0 1-.61 8.2 4.45 4.45 0 0 1-1.36 2.32 4.1 4.1 0 0 1-2.39 1.08 125.31 125.31 0 0 1-13 .49 125.31 125.31 0 0 1-13-.49A4.15 4.15 0 0 1 2 40.42 4.28 4.28 0 0 1 .63 38.1 39.76 39.76 0 0 1 0 29.9a40.6 40.6 0 0 1 .61-8.2A4.45 4.45 0 0 1 2 19.37a4.25 4.25 0 0 1 2.41-1.1q4.29-.47 13-.47t13 .47a4.4 4.4 0 0 1 3.75 3.42 39.76 39.76 0 0 1 .58 8.21zM11.35 0h2.39l-2.83 9.35v6.35H8.57V9.35a39.68 39.68 0 0 0-1.43-5Q6.27 2 5.61 0H8.1l1.67 6.16zM20 7.8v4.1a4.59 4.59 0 0 1-.66 2.76 2.88 2.88 0 0 1-2.49 1.19 2.9 2.9 0 0 1-2.46-1.19 4.68 4.68 0 0 1-.66-2.76V7.8a4.59 4.59 0 0 1 .66-2.74 2.9 2.9 0 0 1 2.46-1.19 2.88 2.88 0 0 1 2.49 1.19A4.59 4.59 0 0 1 20 7.8zM27.87 4v11.7h-2.13v-1.27a3.37 3.37 0 0 1-2.41 1.45A1.31 1.31 0 0 1 22 15a6 6 0 0 1-.19-1.76V4h2.13v8.6a6.14 6.14 0 0 0 0 .82.49.49 0 0 0 .47.52 1.87 1.87 0 0 0 1.31-1V4h2.16z"/></svg></svg>